<?xml version="1.0" ?><svg id="Layer_1" style="enable-background:new 0 0 100 100;" version="1.1" viewBox="0 0 100 100" xml:space="preserve" xmlns="http://www.w3.org/2000/svg" xmlns:xlink="http://www.w3.org/1999/xlink"><style type="text/css">
	.st0{fill-rule:evenodd;clip-rule:evenodd;fill:#FDB913;}
	.st1{fill-rule:evenodd;clip-rule:evenodd;fill:#EFE7D2;}
	.st2{fill:none;}
</style><title/><g><g id="fill"><path class="st0" d="M88.3,29.3C83.9,23.8,67.6,1.6,59.5,4.1C48,3.2,33.4,18.4,25.9,25.5c-9,8.5-26.3,22.8-17.1,36    c0.3,0.8,0.6,1.6,0.9,2.4C9.3,69.8,17.7,76,21.9,78.5C25.8,83.3,35.1,96,42,96c5.6,2.4,9-4.4,12.5-7.5c4.2-3.8,9.1-6.5,13.7-9.8    c8.5-6.1,25.9-16.8,27.4-28.1C99.7,44.6,91.7,33.7,88.3,29.3z"/><path class="st1" d="M60.9,32.7c-0.1-0.5-0.3-0.9-0.5-1.3c-0.3-1.7-0.9-3.3-1.8-4.8c-2.5-6.2-8.1-11.4-12.2-16.4    c-2.6-3.1-4.9-6.6-9.1-7.5C33.3,1.9,29.9,4.1,27,6.4c-0.1,0.1-0.3,0.2-0.4,0.4c-1.4,1-2.7,2.1-4,3.3c-2.2,1.8-4.4,3.7-6.6,5.5    c-3.1,2.6-6.7,5-9.2,8.3c-4.7,6.3-1.9,12.3,3,16.8c2.8,4.5,6.5,8.3,10.8,11.4c0.1,0.2,0.2,0.4,0.4,0.6c0.4,0.6,0.9,1.2,1.3,1.8    c0.3,0.7,0.7,1.4,1.3,1.9c0.2,0.2,0.3,0.3,0.5,0.4c0.5,0.6,1,1.3,1.5,1.9c0.8,1.1,2.1,1.8,3.5,1.8c0.2,0,0.3,0,0.5,0    c2.6,1.2,5.3,1.8,8.1,1.9c3,0.1,4.9-2.5,5.2-5.2c0.3-2.5,1.4-4.9,3.2-6.7c1.8-0.9,3.5-2,5-3.4c1.3-0.3,2.7-0.4,4-0.2    c3.3,0.5,6.5-1.4,6.6-5C61.7,38.7,61.4,35.7,60.9,32.7z"/></g><g id="line_copy"><path class="st2" d="M64.1,35.7c0,3.2,0,6.5-0.1,9.7c7.8,0.1,17.9,0.5,30,1.7c0,0,0-0.1,0-0.1c-0.4-1-0.9-1.9-1.5-2.7    c-1.4-2.1-3.7-4.8-7-8.8c-4.7-5.7-8.5-10.5-11.7-14.4c-2.4-3.1-5-6-7.7-8.8c-0.9-0.8-1.8-1.6-2.8-2.2C63.7,18.6,64,27.2,64.1,35.7    z"/><path class="st2" d="M38.6,84.5c0-6.8,0.6-13.6,1.8-20.2C29.5,64,18.7,62.1,8.3,58.6c0.3,0.8,0.6,1.6,1,2.4    c1.3,2.5,3.7,6.1,8.4,11.4c3.9,4.4,7.6,8.6,11,12.2c2.7,3.1,5.8,5.8,9.2,8.2c0.4,0.3,0.8,0.5,1.2,0.7    C38.7,90.3,38.6,87.3,38.6,84.5z"/><path class="st2" d="M94,50c-12.4-1.3-22.8-1.7-30.7-1.8c-0.7,0-1.3,0-1.9,0c-2.3-0.1-4.7,0.1-7,0.5c-1.9,0.4-3.7,1.2-5.3,2.5    c-1.5,1.3-2.7,2.9-3.4,4.7c-1.1,2.6-1.8,5.4-2.3,8.2c-1.3,6.7-1.9,13.5-1.9,20.3c0,3.1,0.1,6.5,0.4,10.1c0.1,0,0.3,0.1,0.4,0.1    c0.4,0,0.7,0,1,0c0.8,0,1.5-0.1,2.2-0.4c1.3-0.6,2.6-1.3,3.8-2.2c3.4-2.4,8.8-6.8,18.1-14.9c6.4-5.6,12.6-11.3,19.3-16.7    c2.2-1.7,4.2-3.6,5.8-5.9c1-1.3,1.5-2.9,1.7-4.6l0,0C94.2,50,94.1,50,94,50z"/><path class="st2" d="M60.2,9.5c-0.2,0-0.5,0.1-0.7,0.1c-0.6,0.2-1.2,0.4-1.7,0.7c-2.4,1.3-4.7,2.8-6.8,4.4    c-0.4,0.3-0.8,0.6-1.2,0.9c3.8,4.5,7.6,9.1,11.4,13.5C61,22.6,60.7,16,60.2,9.5z"/><path class="st2" d="M24.4,59.8c-4-3.6-7.9-7.4-11.5-11.4c-0.4,0.5-0.9,0.9-1.2,1.3c-1.3,1.3-2.4,2.9-3.2,4.5    c-0.2,0.4-0.3,0.9-0.4,1.3C13.4,57.4,18.8,58.8,24.4,59.8z"/><path class="st2" d="M47.3,49.1c1.9-1.5,4.1-2.6,6.5-3.1c2.4-0.5,4.9-0.7,7.3-0.6c0.1-3.2,0.1-6.5,0.1-9.7c0-0.7,0-1.4,0-2.1    c0,0-0.1-0.1-0.1-0.1L30,60.6c3.7,0.5,7.4,0.7,11.1,0.8c0.5-2.3,1.1-4.5,2-6.6C44,52.6,45.4,50.6,47.3,49.1z"/><path d="M93.4,40.9c-1.5-1.9-3.4-4.2-5.9-7.2C80.3,25,75.3,18.4,71.3,13.9c-1.6-1.9-3.4-3.7-5.3-5.3c-0.8-0.6-1.6-1.1-2.4-1.5    c-0.8-0.4-1.7-0.6-2.5-0.6c-0.1,0-0.2,0-0.3,0c-0.7,0-1.3,0.1-2,0.2c-1.3,0.4-2.5,0.9-3.6,1.7c-1.5,0.9-3.3,2.1-5.8,3.9    c-0.5,0.3-0.9,0.7-1.4,1c-1.3-1.6-2.6-3.2-3.9-4.8c-0.9-1.2-1.9-2.3-3.1-3.2c-1.2-1.1-2.8-1.7-4.4-1.9c-0.1,0-0.3,0-0.4,0    c-1.5,0-2.9,0.5-4.2,1.3c-1.2,0.7-2.2,1.6-3.2,2.5c-7.1,6.3-14.2,12.7-21.3,19c-1.1,0.9-2.1,2-2.9,3.2c-1,1.2-1.5,2.8-1.6,4.3    c0,0.5,0.1,0.9,0.2,1.4c0.4,1.2,1,2.3,1.8,3.3c2,2.6,4.1,5.2,6.2,7.7c-1.3,1.4-2.3,2.5-3.1,3.6c-0.8,1-1.5,2.2-2.1,3.4    c-0.4,1-0.6,2.2-0.7,3.3c0,0.1,0,0.2,0,0.3c0,0.7,0.1,1.4,0.3,2.1c0.7,2.8,3,7.4,10.1,15.4c5.2,5.8,10,11.4,14.4,15.6    c1.9,1.9,4,3.7,6.3,5.2c1.7,1.3,3.8,2,5.9,2.3c0.4,0,0.8,0,1.2,0c1.1,0,2.2-0.2,3.2-0.6c1.8-0.7,4-2.1,7.5-4.8    c3.5-2.7,8.3-6.7,15.3-12.8C75.8,73.7,82,68,88.6,62.7c2.4-1.8,4.6-4,6.4-6.5c1.2-1.8,2-3.8,2.1-5.9c0-0.3,0-0.6,0-0.9    c0-1.1-0.2-2.3-0.6-3.3C95.7,44.2,94.7,42.4,93.4,40.9z M65.9,12.3c2.7,2.8,5.3,5.7,7.7,8.8c3.2,3.9,7,8.7,11.7,14.4    c3.3,4,5.6,6.7,7,8.8c0.6,0.9,1.1,1.8,1.5,2.7c0,0,0,0.1,0,0.1c-12.1-1.2-22.2-1.6-30-1.7c0.1-3.2,0.1-6.5,0.1-9.7    c0-8.5-0.3-17.1-1-25.6C64.1,10.7,65.1,11.5,65.9,12.3z M41,61.5c-3.7-0.1-7.4-0.4-11.1-0.8l-0.1,0.1c0-0.1-0.1-0.1-0.2-0.2l0,0    c-8.4-7-16-15-22.6-23.8c-0.6-0.7-1-1.4-1.3-2.3c-0.1-0.2-0.1-0.5-0.1-0.7c0.1-1,0.4-1.9,1-2.7c0.7-1,1.6-1.9,2.5-2.7    c7.1-6.3,14.2-12.7,21.3-19c0.9-0.8,1.8-1.5,2.8-2.2c0.8-0.5,1.7-0.8,2.7-0.9l0.2,0c1,0.1,2,0.6,2.8,1.3c1,0.9,1.9,1.8,2.7,2.8    c6.3,7.8,12.7,15.4,19.3,23l0,0c0,0,0.1,0.1,0.1,0.1c0,0.7,0,1.4,0,2.1c0,3.2,0,6.5-0.1,9.7c-2.5-0.1-4.9,0.1-7.3,0.6    c-2.4,0.5-4.6,1.5-6.5,3.1c-1.8,1.5-3.3,3.5-4.2,5.7C42.2,56.9,41.5,59.2,41,61.5z M51,14.7c2.2-1.6,4.5-3.1,6.8-4.4    c0.5-0.3,1.1-0.5,1.7-0.7c0.2-0.1,0.4-0.1,0.7-0.1c0.5,6.5,0.8,13.1,1,19.7c-3.8-4.5-7.6-9-11.4-13.5C50.1,15.3,50.5,15,51,14.7    L51,14.7z M11.6,49.7c0.4-0.4,0.8-0.9,1.2-1.3c3.6,4,7.5,7.8,11.5,11.4c-5.5-1-11-2.4-16.3-4.2c0.1-0.5,0.2-0.9,0.4-1.3    C9.3,52.6,10.3,51,11.6,49.7z M28.6,84.6c-3.4-3.6-7.1-7.8-11-12.2c-4.7-5.2-7.1-8.9-8.4-11.4c-0.4-0.8-0.7-1.6-1-2.4    c10.4,3.4,21.2,5.3,32.2,5.6c-1.2,6.7-1.9,13.4-1.9,20.2c0,2.8,0.1,5.8,0.3,9c-0.4-0.2-0.8-0.4-1.2-0.7    C34.5,90.4,31.4,87.6,28.6,84.6z M92.6,54.6c-1.7,2.2-3.6,4.2-5.8,5.9c-6.7,5.4-12.9,11.2-19.3,16.7c-9.3,8.1-14.7,12.5-18.1,14.9    c-1.2,0.9-2.5,1.6-3.8,2.2c-0.7,0.3-1.5,0.4-2.2,0.4c-0.3,0-0.6,0-1,0c-0.1,0-0.3,0-0.4-0.1c-0.3-3.6-0.4-6.9-0.4-10.1    c0-6.8,0.6-13.6,1.9-20.3c0.5-2.8,1.2-5.6,2.3-8.2c0.7-1.8,1.9-3.4,3.4-4.7c1.5-1.3,3.3-2.1,5.3-2.5c2.3-0.4,4.6-0.6,7-0.5    c0.6,0,1.3,0,1.9,0c7.8,0.1,18.2,0.5,30.7,1.8c0.1,0,0.2,0,0.3,0l0,0C94.2,51.7,93.6,53.2,92.6,54.6z"/><path d="M18.9,34.7L18.9,34.7c6-4.6,11.7-9.5,17.2-14.8c0.6-0.5,0.6-1.4,0-2c-0.5-0.6-1.4-0.6-2,0c-5.4,5.2-11,10.1-16.9,14.6    c-0.6,0.5-0.7,1.4-0.3,2C17.4,35,18.3,35.1,18.9,34.7z"/><path d="M42.8,27.2c0.6-0.5,0.7-1.4,0.2-2c-0.5-0.6-1.4-0.7-2-0.2c-6.3,5-12.3,10.3-18,15.9c-0.5,0.6-0.5,1.5,0.1,2    c0.5,0.5,1.4,0.5,1.9,0l0,0C30.7,37.4,36.6,32.2,42.8,27.2z"/><path d="M47.2,32.8c-5.4,5.3-11,10.4-16.8,15.4c-0.6,0.5-0.7,1.4-0.2,2c0.5,0.6,1.4,0.7,2,0.2c0,0,0,0,0,0l0,0    c5.8-5,11.4-10.2,16.9-15.5c0.6-0.6,0.6-1.5,0-2C48.7,32.2,47.7,32.2,47.2,32.8L47.2,32.8z"/></g></g></svg>